<?xml version="1.0" encoding="utf-8"?>
<!-- Generator: Adobe Illustrator 16.0.0, SVG Export Plug-In . SVG Version: 6.00 Build 0)  -->
<!DOCTYPE svg PUBLIC "-//W3C//DTD SVG 1.1//EN" "http://www.w3.org/Graphics/SVG/1.1/DTD/svg11.dtd">
<svg version="1.1" id="Layer_1" xmlns="http://www.w3.org/2000/svg" xmlns:xlink="http://www.w3.org/1999/xlink" x="0px" y="0px"
	 width="67.469px" height="79.298px" viewBox="0 0 67.469 79.298" enable-background="new 0 0 67.469 79.298" xml:space="preserve">
<path d="M65.355,27.875c-1.707-4.83-4.192-9.13-7.456-12.905c-3.266-3.772-7.176-6.829-11.732-9.168
	c-4.56-2.337-9.51-3.686-14.853-4.046L5.21,0L0,77.448l26.104,1.756c5.343,0.359,10.428-0.314,15.26-2.02
	c4.829-1.705,9.113-4.191,12.852-7.461c3.737-3.266,6.774-7.178,9.113-11.734c2.337-4.559,3.687-9.508,4.046-14.854
	C67.734,37.792,67.06,32.707,65.355,27.875 M50.803,42.022c-0.204,3.031-0.975,5.848-2.309,8.439
	c-1.337,2.594-3.064,4.836-5.186,6.725c-2.123,1.889-4.576,3.318-7.361,4.291c-2.786,0.975-5.695,1.357-8.728,1.152l-9.532-0.639
	l2.98-44.302l9.531,0.641c3.033,0.204,5.864,0.976,8.495,2.312c2.629,1.34,4.869,3.086,6.72,5.239
	c1.85,2.157,3.261,4.627,4.234,7.413C50.621,36.079,51.007,38.988,50.803,42.022"/>
</svg>
