<?xml version="1.0" encoding="utf-8"?>
<!-- Generator: Adobe Illustrator 16.0.0, SVG Export Plug-In . SVG Version: 6.00 Build 0)  -->
<!DOCTYPE svg PUBLIC "-//W3C//DTD SVG 1.1//EN" "http://www.w3.org/Graphics/SVG/1.1/DTD/svg11.dtd">
<svg version="1.1" id="Layer_1" xmlns="http://www.w3.org/2000/svg" xmlns:xlink="http://www.w3.org/1999/xlink" x="0px" y="0px"
	 width="311.125px" height="228.064px" viewBox="0 0 311.125 228.064" enable-background="new 0 0 311.125 228.064"
	 xml:space="preserve">
<polygon points="0,8.372 57.4,3.051 58.934,19.59 18.072,23.378 19.355,37.215 43.677,34.959 45.21,51.499 20.888,53.754 
	23.704,84.129 7.165,85.663 "/>
<rect x="74.978" y="19.186" transform="matrix(0.9981 0.0621 -0.0621 0.9981 3.7596 -5.0564)" width="16.61" height="77.622"/>
<path d="M157.735,52.944c2.457-1.389,4.642-3.073,6.555-5.052c1.911-1.979,3.504-4.193,4.778-6.643
	c1.272-2.449,2.181-5.054,2.724-7.817c0.543-2.761,0.638-5.616,0.283-8.563c-0.467-3.88-1.643-7.438-3.524-10.675
	c-1.884-3.235-4.252-5.957-7.104-8.167c-2.854-2.208-6.058-3.846-9.611-4.913c-3.555-1.067-7.272-1.368-11.152-0.902l-26.731,3.212
	l9.26,77.068l16.492-1.982l-2.5-20.803l3.449-0.414l15.339,19.369l19.187-2.305L157.735,52.944z M155.205,31.434
	c-0.443,1.475-1.123,2.797-2.039,3.963c-0.917,1.167-2.039,2.141-3.367,2.919c-1.327,0.78-2.783,1.264-4.363,1.453L135.197,41
	l-2.772-23.066l10.239-1.23c1.581-0.19,3.109-0.063,4.584,0.378c1.475,0.443,2.795,1.123,3.962,2.039
	c1.167,0.917,2.14,2.039,2.92,3.367c0.778,1.328,1.265,2.783,1.454,4.363C155.773,28.433,155.646,29.959,155.205,31.434"/>
<path d="M224.607,56.823c2.872,1.737,5.272,3.867,7.2,6.392c1.927,2.525,3.323,5.344,4.188,8.459
	c0.863,3.114,1.004,6.316,0.422,9.604c-0.575,3.217-1.728,6.121-3.456,8.708c-1.732,2.587-3.885,4.769-6.457,6.549
	c-2.574,1.78-5.464,3.061-8.67,3.843c-3.208,0.782-6.531,0.943-9.976,0.485l-0.86-0.114c-4.501-0.744-8.526-2.465-12.073-5.164
	c-3.548-2.698-6.109-6.086-7.684-10.166l-3.268-7.552l16.325-5.826l3.131,7.754c1.11,2.631,3.199,4.222,6.266,4.776
	c1.137,0.224,2.232,0.224,3.285-0.002c1.052-0.225,2-0.628,2.845-1.21c0.845-0.581,1.557-1.289,2.144-2.125
	c0.585-0.834,0.98-1.748,1.187-2.744c0.267-2.008-0.244-3.938-1.53-5.789c-1.37-1.787-3.167-2.83-5.39-3.126l-1.6-0.322
	c-3.497-0.61-6.661-1.797-9.493-3.561c-2.832-1.763-5.214-3.905-7.141-6.425c-1.93-2.518-3.326-5.333-4.19-8.442
	c-0.864-3.107-1.012-6.267-0.438-9.477c0.509-3.289,1.671-6.256,3.482-8.9c1.811-2.643,4.039-4.847,6.684-6.614
	c2.644-1.765,5.636-2.992,8.977-3.681c3.339-0.687,6.798-0.756,10.377-0.208c4.429,0.735,8.417,2.451,11.965,5.149
	c3.546,2.699,6.107,6.087,7.684,10.166l-16.188,5.624c-1.112-2.629-3.2-4.221-6.266-4.775c-2.287-0.376-4.329,0.023-6.127,1.197
	c-1.8,1.175-2.908,2.785-3.325,4.831c-0.132,0.999-0.082,1.984,0.154,2.957c0.235,0.974,0.695,1.904,1.381,2.793
	c1.369,1.777,3.167,2.813,5.392,3.109l1.492,0.307C218.55,53.916,221.734,55.088,224.607,56.823"/>
<polygon points="311.125,7.668 310.057,24.244 286.655,22.736 282.73,83.621 266.156,82.553 270.08,21.668 246.68,20.159 
	247.748,3.584 "/>
<polygon points="24.545,197.2 49.104,199.241 47.729,215.794 6.618,212.378 13.045,135.022 29.599,136.397 "/>
<path d="M106.192,128.161l-14.45-0.285l-22.452,79.445l17.541-1.268l4.536-15.564l22.955-1.658l6.509,14.768l18.998-0.043
	L106.192,128.161z M96.125,173.491l4.428-15.559l6.509,14.77L96.125,173.491z"/>
<path d="M223.595,176.642c-1.707-4.83-4.192-9.131-7.456-12.906c-3.266-3.771-7.176-6.828-11.732-9.168
	c-4.56-2.336-9.51-3.686-14.853-4.045l-26.104-1.756l-5.21,77.447l26.104,1.756c5.343,0.359,10.428-0.314,15.26-2.02
	c4.829-1.705,9.113-4.191,12.852-7.461c3.737-3.266,6.774-7.178,9.113-11.734c2.337-4.559,3.687-9.508,4.046-14.854
	C225.974,186.558,225.299,181.474,223.595,176.642 M209.042,190.788c-0.204,3.031-0.975,5.848-2.309,8.439
	c-1.337,2.594-3.064,4.836-5.186,6.725c-2.123,1.889-4.576,3.318-7.361,4.291c-2.786,0.975-5.695,1.357-8.728,1.152l-9.532-0.639
	l2.98-44.303l9.531,0.641c3.033,0.205,5.864,0.977,8.495,2.313c2.629,1.34,4.869,3.086,6.72,5.238
	c1.85,2.158,3.261,4.627,4.234,7.414C208.86,184.845,209.246,187.755,209.042,190.788"/>
<polygon points="278.031,177.202 280.893,209.644 264.347,211.103 261.486,178.661 226.6,136.509 247.146,134.696 268.354,161.38 
	284.456,131.407 305.544,129.548 "/>
</svg>
