<?xml version="1.0" encoding="utf-8"?>
<!-- Generator: Adobe Illustrator 16.0.0, SVG Export Plug-In . SVG Version: 6.00 Build 0)  -->
<!DOCTYPE svg PUBLIC "-//W3C//DTD SVG 1.1//EN" "http://www.w3.org/Graphics/SVG/1.1/DTD/svg11.dtd">
<svg version="1.1" id="Layer_1" xmlns="http://www.w3.org/2000/svg" xmlns:xlink="http://www.w3.org/1999/xlink" x="0px" y="0px"
	 width="61.227px" height="80.492px" viewBox="0 0 61.227 80.492" enable-background="new 0 0 61.227 80.492" xml:space="preserve">
<path d="M43.783,52.944c2.457-1.389,4.642-3.073,6.555-5.053c1.911-1.979,3.504-4.192,4.778-6.643
	c1.272-2.449,2.181-5.054,2.724-7.817c0.543-2.761,0.638-5.616,0.283-8.563c-0.467-3.88-1.643-7.438-3.524-10.675
	c-1.884-3.235-4.252-5.957-7.104-8.167c-2.854-2.208-6.058-3.846-9.611-4.913c-3.555-1.067-7.272-1.368-11.152-0.902L0,3.424
	l9.26,77.068l16.492-1.981l-2.5-20.804l3.449-0.413L42.04,76.662l19.187-2.305L43.783,52.944z M41.253,31.434
	c-0.443,1.475-1.123,2.797-2.039,3.963c-0.917,1.167-2.039,2.141-3.367,2.919c-1.326,0.78-2.783,1.264-4.363,1.453L21.245,41
	l-2.772-23.066l10.239-1.23c1.581-0.19,3.109-0.063,4.584,0.378c1.475,0.443,2.795,1.123,3.962,2.039
	c1.167,0.917,2.14,2.039,2.92,3.367c0.778,1.328,1.265,2.783,1.454,4.363C41.821,28.433,41.694,29.959,41.253,31.434"/>
</svg>
