<?xml version="1.0" encoding="utf-8"?>
<!-- Generator: Adobe Illustrator 16.0.0, SVG Export Plug-In . SVG Version: 6.00 Build 0)  -->
<!DOCTYPE svg PUBLIC "-//W3C//DTD SVG 1.1//EN" "http://www.w3.org/Graphics/SVG/1.1/DTD/svg11.dtd">
<svg version="1.1" id="Layer_1" xmlns="http://www.w3.org/2000/svg" xmlns:xlink="http://www.w3.org/1999/xlink" x="0px" y="0px"
	 width="54.568px" height="79.537px" viewBox="0 0 54.568 79.537" enable-background="new 0 0 54.568 79.537" xml:space="preserve">
<path d="M40.634,35.243c2.872,1.737,5.272,3.867,7.2,6.393c1.927,2.524,3.323,5.344,4.188,8.459
	c0.863,3.113,1.004,6.315,0.422,9.604c-0.575,3.217-1.728,6.121-3.456,8.708c-1.732,2.587-3.885,4.769-6.457,6.55
	c-2.574,1.779-5.464,3.061-8.67,3.842c-3.208,0.783-6.531,0.943-9.976,0.485l-0.86-0.114c-4.501-0.744-8.526-2.465-12.073-5.164
	c-3.548-2.697-6.109-6.086-7.684-10.166L0,56.287l16.325-5.825l3.131,7.754c1.11,2.631,3.199,4.222,6.266,4.775
	c1.137,0.225,2.232,0.225,3.285-0.002c1.052-0.225,2-0.628,2.845-1.21c0.845-0.581,1.557-1.289,2.144-2.125
	c0.585-0.834,0.98-1.748,1.187-2.744c0.267-2.008-0.244-3.938-1.53-5.788c-1.37-1.787-3.167-2.83-5.39-3.127l-1.6-0.322
	c-3.497-0.609-6.661-1.797-9.493-3.561s-5.214-3.904-7.141-6.425c-1.93-2.518-3.326-5.333-4.19-8.442
	c-0.864-3.107-1.012-6.267-0.438-9.477c0.509-3.289,1.671-6.256,3.482-8.9c1.811-2.643,4.039-4.847,6.684-6.614
	c2.644-1.765,5.636-2.992,8.977-3.681c3.339-0.687,6.798-0.756,10.377-0.208c4.429,0.735,8.417,2.451,11.965,5.149
	c3.546,2.699,6.107,6.087,7.684,10.166L38.38,21.304c-1.112-2.629-3.2-4.221-6.266-4.775c-2.287-0.376-4.329,0.023-6.127,1.197
	c-1.8,1.175-2.908,2.785-3.325,4.831c-0.132,0.999-0.082,1.984,0.154,2.957c0.235,0.974,0.695,1.904,1.381,2.793
	c1.369,1.777,3.167,2.813,5.392,3.109l1.492,0.307C34.576,32.335,37.761,33.508,40.634,35.243"/>
</svg>
